<svg width="17" height="16" viewBox="0 0 17 16" fill="none" xmlns="http://www.w3.org/2000/svg">
<path d="M7.33732 12.7666C8.7108 12.7666 9.99327 12.3184 11.0358 11.5713L14.9577 15.5059C15.1397 15.6885 15.3797 15.7798 15.6279 15.7798C16.1657 15.7798 16.5546 15.3647 16.5546 14.8335C16.5546 14.5845 16.4718 14.3521 16.2898 14.1694L12.3927 10.2515C13.2119 9.17236 13.7 7.83594 13.7 6.3833C13.7 2.87207 10.8372 0 7.33732 0C3.82914 0 0.974609 2.87207 0.974609 6.3833C0.974609 9.89453 3.82914 12.7666 7.33732 12.7666ZM7.33732 11.3887C4.59862 11.3887 2.34809 9.12256 2.34809 6.3833C2.34809 3.64404 4.59862 1.37793 7.33732 1.37793C10.0677 1.37793 12.3265 3.64404 12.3265 6.3833C12.3265 9.12256 10.0677 11.3887 7.33732 11.3887Z" fill="#8E8E93"/>
</svg>
